<svg xmlns="http://www.w3.org/2000/svg" width="23" height="23">
  <path fill="#FFF" fill-rule="nonzero" d="M22.6311068 8.9056087l-1.3166718 1.282-3.668701-3.57126087 1.3172077-1.28213044c.4149826-.404 1.0384835-.45395652 1.3906292-.11152174l2.392134 2.32921739c.3516097.34230435.3003844.94969566-.1145981 1.35369566zm-5.5967709-1.69434783l3.668701 3.57160873-8.7481728 8.5165217c-.0401049.0390435-.1515321.1475217-.3077981.1863044-.0180874.0084782-.0365767.0156956-.0548874.0213478l-4.56561161 1.4165217c-.12777282.0393044-.25617087.0138696-.33946214-.0673478-.08355922-.0812174-.10941747-.206087-.0694466-.3305217l1.45502913-4.4443914c.00620777-.0182173.01362136-.0359565.02192815-.0532173.04001554-.1523913.1511301-.2605653.19168156-.2998696l1.64403107-1.6005217H4.37759223c-.22383689 0-.4054699-.1767827-.4054699-.3947392 0-.2183913.18158835-.3946956.4054699-.3946956H10.741268l6.2930679-6.12700003zM10.8263903 19.0249565l-2.25842137-2.1983043L7.9621534 18.678l.96260582.9372609 1.90163108-.5903044zm6.066998-10.39417389c-.1298718-.12656522-.3405339-.12656522-.4701378 0L9.60328155 15.2698261c-.12973786.1264348-.12973786.3315217 0 .4579565.12973787.1264348.34053398.1264348.47027185 0l6.8198349-6.63908695c.1298272-.12656522.1298272-.33160869 0-.45791304zm-.4121242 12.63952169c0 .237174-.198202.4304348-.4419126.4304348H7.99220971l-.72684466.2256087c-.14599418.0452609-.29605243.068087-.44624466.068087-.31981165 0-.61715922-.1066522-.8604233-.2937391H1.78127184c-.24375534 0-.44253786-.1927827-.44253786-.4304348V3.19234783c0-.23730435.19851456-.43043479.44253786-.43043479h1.65778641v.68152174c0 .23756522.19784466.43030435.44226991.43030435.24433592 0 .44218058-.19273913.44218058-.43030435v-.68156521h2.54205825v.68152173c0 .23756522.19784466.43030435.44218058.43030435.24442525 0 .44226991-.19273913.44226991-.43030435v-.68152173h2.21054563v.68152173c0 .23756522.19784469.43030435.44231459.43030435.2442912 0 .4421359-.19273913.4421359-.43030435v-.68152173h2.4318815v.68152173c0 .23756522.1977107.43030435.4419127.43030435.2444252 0 .4424039-.19273913.4424039-.43030435v-.68152173h1.8789436c.2433981 0 .4419573.19313043.4419573.43043478v2.98134782l.4635282-.45104347.8629242-.8402174V3.19234783c0-.94917392-.7932543-1.72156522-1.7684097-1.72156522h-1.8789436V.4306087C14.1612117.19291304 13.9631883 0 13.7188078 0c-.243934 0-.4419127.19265217-.4419127.4306087V1.4707826h-2.4324174V.4306087C10.8444777.19291304 10.646633 0 10.4022971 0c-.2444253 0-.44226992.19265217-.44226992.4306087V1.4707826H7.74948155V.4306087C7.74948155.19291304 7.55163689 0 7.30716699 0c-.24429126 0-.44213592.19265217-.44213592.4306087V1.4707826H4.32297282V.4306087C4.32297282.19291304 4.1250835 0 3.88079223 0c-.24442524 0-.4422699.19265217-.4422699.4306087V1.4707826H1.78073592c-.97502136 0-1.768633.7723913-1.768633 1.72156522V21.2700435c0 .9493043.7936563 1.7215652 1.768633 1.7215652H16.0391282c.9751553 0 1.7684097-.7722609 1.7684097-1.7215652v-6.2674783l-1.3264971 1.2916522v4.9760869h.0002233zM13.0276913 6.62765217H4.37759223c-.22383689 0-.4054699.17656522-.4054699.39473913 0 .2182174.18158835.39473913.4054699.39473913h8.65009907c.2238815 0 .4054699-.17656521.4054699-.39473913 0-.21817391-.1815884-.39473913-.4054699-.39473913zm0 3.18256522H4.37759223c-.22383689 0-.4054699.17665218-.4054699.39473911 0 .2182174.18158835.3947392.4054699.3947392h8.65009907c.2238815 0 .4054699-.1765653.4054699-.3947392 0-.21808693-.1815884-.39473911-.4054699-.39473911z"/>
</svg>
