<svg width="20px" height="22px" viewBox="0 0 20 22" version="1.1" xmlns="http://www.w3.org/2000/svg" xmlns:xlink="http://www.w3.org/1999/xlink">
  <g id="SYMBOLS" stroke="none" stroke-width="1" fill="none" fill-rule="evenodd">
    <g id="duplicate" fill="#FFFFFF" fill-rule="nonzero">
      <path d="M14.7368421,0 L2.10526316,0 C0.947368421,0 0,0.9 0,2 L0,16 L2.10526316,16 L2.10526316,2 L14.7368421,2 L14.7368421,0 Z M13.6842105,4 L20,10 L20,20 C20,21.1 19.0526316,22 17.8947368,22 L6.30526316,22 C5.14736842,22 4.21052632,21.1 4.21052632,20 L4.22105263,6 C4.22105263,4.9 5.15789474,4 6.31578947,4 L13.6842105,4 Z M12.6315789,11 L18.4210526,11 L12.6315789,5.5 L12.6315789,11 Z" id="Shape-Copy-6"></path>
    </g>
  </g>
</svg>
