<svg width="21px" height="22px" viewBox="0 0 21 22" version="1.1" xmlns="http://www.w3.org/2000/svg" xmlns:xlink="http://www.w3.org/1999/xlink">
  <g id="SYMBOLS" stroke="none" stroke-width="1" fill="none" fill-rule="evenodd">
    <g id="download-button" fill="#FFFFFF">
      <g id="Path">
        <path d="M17.4811,14 L17.4811,18.7936 L2.8182,18.7936 L2.8182,14 L0,14 L0,20.2027 C0,20.9804 0.63,21.6111 1.4112,21.6111 L18.8881,21.6111 C19.6686,21.6111 20.2993,20.9811 20.2993,20.2027 L20.2993,14 L17.4811,14 Z"></path>
        <path d="M10.2929204,12.8982 L6.25812037,8.0227 C6.25812037,8.0227 5.64422037,7.4431 6.30992037,7.4431 C6.97562037,7.4431 8.58352037,7.4431 8.58352037,7.4431 C8.58352037,7.4431 8.58352037,7.0532 8.58352037,6.4519 C8.58352037,4.7376 8.58352037,1.6177 8.58352037,0.3458 C8.58352037,0.3458 8.49322037,0 9.01402037,0 C9.53902037,0 11.8385204,0 12.2144204,0 C12.5896204,0 12.5812204,0.2912 12.5812204,0.2912 C12.5812204,1.5246 12.5812204,4.7523 12.5812204,6.4106 C12.5812204,6.9482 12.5812204,7.2968 12.5812204,7.2968 C12.5812204,7.2968 13.8706204,7.2968 14.6798204,7.2968 C15.4876204,7.2968 14.8793204,7.9037 14.8793204,7.9037 C14.8793204,7.9037 11.4465204,12.4607 10.9677204,12.9388 C10.6233204,13.2853 10.2929204,12.8982 10.2929204,12.8982 Z"></path>
      </g>
    </g>
  </g>
</svg>
