<svg width="31px" height="18px" viewBox="0 0 31 18" version="1.1" xmlns="http://www.w3.org/2000/svg" xmlns:xlink="http://www.w3.org/1999/xlink">
  <g id="SYMBOLS" stroke="none" stroke-width="1" fill="none" fill-rule="evenodd">
    <g id="preview" fill="#FFFFFF" fill-rule="nonzero">
      <g id="eye">
        <path d="M15.4952454,0 C9.574182,0 4.20465235,3.13924915 0.242484663,8.23822526 C-0.0808282209,8.6559727 -0.0808282209,9.23959044 0.242484663,9.65733788 C4.20465235,14.7624573 9.574182,17.9017065 15.4952454,17.9017065 C21.4163088,17.9017065 26.7858384,14.7624573 30.7480061,9.66348123 C31.071319,9.24573379 31.071319,8.66211604 30.7480061,8.2443686 C26.7858384,3.13924915 21.4163088,0 15.4952454,0 Z M15.9199898,15.2539249 C11.9895194,15.4935154 8.74371166,12.3542662 8.99095092,8.53924915 C9.19381391,5.39385666 11.8246933,2.8443686 15.070501,2.64778157 C19.0009714,2.40819113 22.2467791,5.54744027 21.9995399,9.36245734 C21.7903374,12.5017065 19.1594581,15.0511945 15.9199898,15.2539249 Z M15.7234663,12.3419795 C13.6060838,12.4709898 11.8563906,10.78157 11.9958589,8.72969283 C12.1036299,7.03412969 13.5236708,5.66416382 15.273364,5.55358362 C17.3907464,5.42457338 19.1404397,7.11399317 19.0009714,9.16587031 C18.8868609,10.8675768 17.46682,12.2375427 15.7234663,12.3419795 Z" id="Shape"></path>
      </g>
    </g>
  </g>
</svg>
