
<svg width="20px" height="19px" viewBox="0 0 20 19" version="1.1" xmlns="http://www.w3.org/2000/svg" xmlns:xlink="http://www.w3.org/1999/xlink">
  <g id="SYMBOLS" stroke="none" stroke-width="1" fill="none" fill-rule="evenodd">
    <g id="PRIMARY-MENU/OPENED" transform="translate(-16.000000, -100.000000)" fill="#FF0100">
      <g id="ICONS/SHARED-CHARTS-LINK-COLLOUR" transform="translate(16.000000, 100.000000)">
        <g id="icons8-statistics">
          <path d="M9,0 L9,1 L0,1 L0,3 L1,3 L1,13 C1,14.105 1.895,15 3,15 L7.5996094,15 L6,19 L8,19 L9.599609,15 L10.400391,15 L12,19 L14,19 L12.400391,15 L17,15 C18.105,15 19,14.105 19,13 L19,3 L20,3 L20,1 L11,1 L11,0 L9,0 Z M15.292969,5.2929688 L16.707031,6.7070312 L12,11.414062 L9,8.414062 L6,11.414062 L3.2929688,8.707031 L4.7070312,7.2929688 L6,8.585938 L9,5.5859375 L12,8.585938 L15.292969,5.2929688 Z" id="Shape" fill-rule="nonzero"></path>
        </g>
      </g>
    </g>
  </g>
</svg>
