<svg width="37" height="33" style="margin: auto" xmlns="http://www.w3.org/2000/svg">
  <g fill="none" fill-rule="evenodd">
    <path d="M4-1.8h33v33H4z"/>
    <path d="M23.25 14.7a2.758 2.758 0 0 0-2.75-2.75 2.758 2.758 0 0 0-2.75 2.75 2.758 2.758 0 0 0 2.75 2.75 2.758 2.758 0 0 0 2.75-2.75zM20.5 2.325c-6.834 0-12.375 5.541-12.375 12.375H4l5.5 5.5 5.5-5.5h-4.125A9.618 9.618 0 0 1 20.5 5.075a9.618 9.618 0 0 1 9.625 9.625 9.618 9.618 0 0 1-9.625 9.625 9.677 9.677 0 0 1-5.582-1.788l-1.953 1.98a12.391 12.391 0 0 0 7.535 2.558c6.834 0 12.375-5.541 12.375-12.375S27.334 2.325 20.5 2.325z" fill="#898989" fill-rule="nonzero"/>
  </g>
</svg>
