<?xml version="1.0" encoding="UTF-8"?>
<svg width="23px" height="23px" viewBox="0 0 23 23" version="1.1" xmlns="http://www.w3.org/2000/svg" xmlns:xlink="http://www.w3.org/1999/xlink" style="display: flex; margin: auto">
    <!-- Generator: Sketch 52.6 (67491) - http://www.bohemiancoding.com/sketch -->
    <title>indicator - link</title>
    <desc>Created with Sketch.</desc>
    <g id="indicator---link" stroke="none" stroke-width="1" fill="none" fill-rule="evenodd">
        <g id="group" fill="#FF0100">
            <ellipse id="Oval" cx="11.48344" cy="2.03511581" rx="2.00273778" ry="2.00719822"></ellipse>
            <path d="M12.2595111,4.52469933 C12.2500556,4.52444321 12.2406,4.52418708 12.2311444,4.52403341 L10.7357867,4.52403341 C9.2023,4.55292428 7.98258444,5.8222784 8.01141111,7.3591804 C8.01156444,7.36865702 8.01182,7.37813363 8.01207556,7.38761024 L8.01207556,7.81579955 C8.01207556,8.02991982 8.09216667,8.27077951 8.33249111,8.27077951 L14.6343889,8.27077951 C14.8747133,8.27077951 14.9548044,8.02991982 14.9548044,7.81579955 L14.9548044,7.38761024 C14.9993222,5.85111804 13.7925889,4.56931626 12.2595111,4.52469933 Z" id="Path"></path>
            <path d="M2.80497778,13.3556236 C3.02618667,13.3556236 3.20553556,13.1758753 3.20553556,12.9541737 C3.19996444,10.4351871 4.34025333,8.0510245 6.30307333,6.47765033 C6.47076889,6.35696437 6.50915333,6.12286637 6.38873556,5.95479733 C6.37887111,5.94101782 6.36808667,5.92795546 6.35648444,5.91566147 C6.21577556,5.74687528 5.96568889,5.72300445 5.79574444,5.8621314 C3.65173556,7.5891804 2.40457333,10.1973497 2.40447111,12.9541737 C2.40447111,13.1759265 2.58376889,13.3556236 2.80497778,13.3556236 Z" id="Path"></path>
            <path d="M14.12706,20.8223252 C12.4183644,21.3841091 10.5752978,21.3841091 8.86660222,20.8223252 C8.65612667,20.7540423 8.43031778,20.869657 8.36213556,21.0805501 C8.36111333,21.0836748 8.36014222,21.0867996 8.35922222,21.0899243 C8.30468667,21.30302 8.42014667,21.5228263 8.62622667,21.5984343 C9.54898667,21.8990735 10.5131467,22.0525947 11.48344,22.0534143 C12.4734622,22.0543875 13.4568911,21.8916459 14.3940644,21.5716949 C14.5905867,21.4699621 14.6676622,21.2277706 14.5661556,21.0308107 C14.4833556,20.870118 14.3035467,20.7847773 14.12706,20.8223252 Z" id="Path"></path>
            <path d="M16.2581378,6.17977728 C16.2598244,6.18095546 16.2615622,6.18213363 16.2633,6.1833118 C18.4529,7.74080624 19.75608,10.2631737 19.7613956,12.9542249 C19.7613956,13.1759265 19.9407444,13.3556748 20.1619533,13.3556748 C20.3831622,13.3556748 20.5625111,13.1759265 20.5625111,12.9542249 C20.5551511,9.99731626 19.1229156,7.22614922 16.7172689,5.51426281 C16.5305089,5.40120935 16.2887533,5.44736303 16.1565289,5.62132294 C16.0306422,5.80368374 16.0761822,6.05371269 16.2581378,6.17977728 Z" id="Path"></path>
            <ellipse id="Oval" cx="3.47254" cy="16.7544499" rx="2.00273778" ry="2.00719822"></ellipse>
            <path d="M4.24861111,19.2440334 C4.23915556,19.2437773 4.2297,19.2435212 4.22024444,19.2433675 L2.72488667,19.2433675 C1.1914,19.2722584 -0.0283666667,20.5416125 0.000511111111,22.0785145 C0.000664444444,22.0879911 0.00092,22.0974677 0.00117555556,22.1069443 L0.00117555556,22.5351336 C0.00117555556,22.7492539 0.0812666667,22.9901136 0.321591111,22.9901136 L6.62348889,22.9901136 C6.86381333,22.9901136 6.94390444,22.7492539 6.94390444,22.5351336 L6.94390444,22.1069443 C6.98847333,20.5704009 5.78174,19.2886503 4.24861111,19.2440334 Z" id="Path"></path>
            <ellipse id="Oval" cx="19.49434" cy="16.7544499" rx="2.00273778" ry="2.00719822"></ellipse>
            <path d="M20.27036,19.2440334 C20.2609044,19.2437773 20.2514489,19.2435212 20.2419933,19.2433675 L18.7466356,19.2433675 C17.2131489,19.2722584 15.9934333,20.5416125 16.02226,22.0785145 C16.0224133,22.0879911 16.0226689,22.0974677 16.0229244,22.1069443 L16.0229244,22.5351336 C16.0229244,22.7492539 16.1030156,22.9901136 16.34334,22.9901136 L22.6452889,22.9901136 C22.8856133,22.9901136 22.9657044,22.7492539 22.9657044,22.5351336 L22.9657044,22.1069443 C23.0102222,20.5704009 21.8034889,19.2886503 20.27036,19.2440334 Z" id="Path"></path>
        </g>
    </g>
</svg>
