<svg xmlns="http://www.w3.org/2000/svg" width="58" height="58">
  <g fill="#FF0100" fill-rule="nonzero">
    <path d="M29 0C12.9839193 0 0 12.9839193 0 29s12.9839193 29 29 29c.8736817 0 1.7440593-.0391765 2.6101887-.1170573.805241-.0722168 1.6034018-.182666 2.3954265-.3209635l.3044433-.0538086c14.7251466-2.7480144 24.9350913-16.2582195 23.55778-31.174528C56.4905273 11.417334 43.9795573.00472005 29 0zm-2.3298177 55.9642416h-.0684407c-.7519043-.0665529-1.4981446-.1670899-2.2377768-.2959473-.0424804-.0075521-.0849608-.0122722-.1264973-.0202963-.7231121-.1293294-1.4386719-.2898111-2.1471518-.4771972l-.1713378-.0438965c-.6910156-.1873861-1.3744791-.4049804-2.0480306-.6466471-.0698568-.0250164-.1401856-.0472005-.2100423-.0731608-.6603353-.2426108-1.3088705-.5144858-1.9474935-.8085449-.0792969-.0354005-.1585938-.0693848-.2378907-.1071453-.6263509-.2898112-1.2404297-.6164387-1.8427083-.9600585-.0849609-.0481446-.1708658-.0962892-.2558269-.1439617-.5928385-.3459798-1.1719888-.7169758-1.7402831-1.1087402-.085905-.0599447-.172754-.1180012-.2581869-.1779459-.5583822-.3960124-1.1026041-.8165691-1.632666-1.2564779L11.6 49.7167806v-8.1501139c.0070801-5.8698568 4.7634766-10.6262533 10.6333333-10.6333334h13.5333334C41.6365234 30.9404134 46.3929199 35.6968099 46.4 41.5666667v8.1510579l-.1283854.1071452c-.5404459.451237-1.0950521.8779297-1.6647624 1.2810221-.0755208.0528645-.1519856.1033691-.2270345.1552898-.5749023.3993163-1.1639648.7750325-1.7671875 1.1280924-.0755208.0438965-.1529297.085433-.2279785.1288573-.6112467.347868-1.2328776.6763836-1.8667807.9723309-.0726887.0339844-.1458495.0656086-.2194824.096761-.6438151.2968913-1.2980142.5701823-1.9630696.814681-.0660807.0245442-.1326335.0457844-.1935221.0689128-.6768554.2426106-1.3631511.4620931-2.0579427.6504231l-.1666178.0415365c-.7094239.187386-1.4254558.3488118-2.1495118.4786133-.0415365.0075521-.0830729.0127442-.1246094.0193522-.7405761.1293295-1.4877604.2298666-2.2401367.2968912h-.0684408c-.7731445.0665529-1.546761.1024251-2.3298177.1024251-.7830566 0-1.5628092-.0292642-2.3345377-.0958169zm21.663151-8.0387208v-6.3588541C48.3253093 34.6296061 42.7037272 29.0080241 35.7666667 29H22.2333333c-6.9370605.0080241-12.55864258 5.6296061-12.56666663 12.5666667v6.3579102C-.74482416 37.2983235-.62871093 20.2612956 9.92626959 9.77758792 20.48125-.70564782 37.51875-.70564782 48.0737304 9.77758792c10.5549805 10.48370768 10.6710938 27.52073558.2596029 38.14698898v.0009439z"/>
    <path d="M29 7.73333333c-5.3388509 0-9.6666667 4.32781577-9.6666667 9.66666667S23.6611491 27.0666667 29 27.0666667c5.3388509 0 9.6666667-4.3278158 9.6666667-9.6666667C38.6610026 12.0635092 34.3364908 7.7389974 29 7.73333333zm0 17.39999997c-4.2711751 0-7.7333333-3.4621582-7.7333333-7.7333333S24.7288249 9.66666667 29 9.66666667 36.7333333 13.1288249 36.7333333 17.4c-.00472 4.2688151-3.4645182 7.7286133-7.7333333 7.7333333z"/>
  </g>
</svg>
