<?xml version="1.0" encoding="UTF-8"?>
<svg style="margin: auto" width="16px" height="22px" viewBox="0 0 16 22" version="1.1" xmlns="http://www.w3.org/2000/svg" xmlns:xlink="http://www.w3.org/1999/xlink">
    <!-- Generator: Sketch 52.6 (67491) - http://www.bohemiancoding.com/sketch -->
    <title>map-pin-silhouette - link</title>
    <desc>Created with Sketch.</desc>
    <g id="map-pin-silhouette---link" stroke="none" stroke-width="1" fill="none" fill-rule="evenodd">
        <g id="map-pin-silhouette" fill="#FF0100" fill-rule="nonzero">
            <path d="M8,0 C3.58188006,0 0,3.45666978 0,7.72030204 C0,8.04670213 0.0271329656,8.36481197 0.0684896139,8.68015839 C0.752071353,14.7107454 7.48053045,21.6612325 7.48053045,21.6612325 C7.60042249,21.7907053 7.71599578,21.8705725 7.82729727,21.9283777 L7.83302429,21.9311411 L8.0570825,22 L8.28114071,21.9311411 L8.28686774,21.9283777 C8.39816923,21.8705272 8.51378946,21.7865375 8.63363455,21.6612325 C8.63363455,21.6612325 15.2650628,14.6983327 15.9329187,8.66643192 C15.972867,8.35520797 16,8.03981624 16,7.71894298 C15.9985448,3.45666978 12.4181199,0 8,0 Z M8,12.68634 C5.16305598,12.68634 2.8541251,10.4581215 2.8541251,7.72034734 C2.8541251,4.98257319 5.16305598,2.75435464 8,2.75435464 C10.836944,2.75435464 13.1444666,4.98257319 13.1444666,7.72034734 C13.1444666,10.4581215 10.836944,12.68634 8,12.68634 Z" id="Shape"></path>
        </g>
    </g>
</svg>
