<svg xmlns="http://www.w3.org/2000/svg" width="20" height="20">
  <path fill="#00F" fill-rule="evenodd" d="M19.400694 15.330784l-1.513592-1.513423c-.221497-.22309-.545398-.310714-.849175-.229721-.303777.080992-.541044.318233-.622046.621976-.081001.303743.006632.627607.229748.84908l.842507.842424H6.730958a2.603267 2.603267 0 0 1-1.128381-.263965l11.956474-11.9551v1.39222c0 .484826.393074.877856.877954.877856.48488 0 .877954-.39303.877954-.877856V2.733328C19.313585 1.602638 18.397219.686373 17.2664.685h-2.34121c-.48488 0-.877953.393029-.877953.877855 0 .484826.393073.877855.877954.877855h1.392376L4.361092 14.395844a2.603654 2.603654 0 0 1-.263995-1.128254V2.511582l.84252.842413c.343186.340657.897273.339649 1.239216-.002256.341943-.341905.342952-.89593.002257-1.239078L4.667498.59924c-.800275-.798985-2.096504-.798985-2.896779 0L.257127 2.112661c-.221768.221756-.308371.544965-.227188.847878.081184.302912.31782.53951.620772.620667.302951.081157.626192-.005455.84796-.22721l.842519-.842414V13.26759c.002851 2.422948 1.966548 4.386425 4.389768 4.389276H17.48817l-.842507.842424c-.223116.221472-.310749.545337-.229747.84908.081001.303743.318268.540983.622045.621976.303777.080992.627678-.00663.849175-.229722l1.513592-1.513422c.799042-.80019.799026-2.096247-.000035-2.896418z"/>
</svg>
